<?xml version="1.0" standalone="no"?>
<!DOCTYPE svg PUBLIC "-//W3C//DTD SVG 20010904//EN"
 "http://www.w3.org/TR/2001/REC-SVG-20010904/DTD/svg10.dtd">
<svg version="1.0" xmlns="http://www.w3.org/2000/svg"
 width="700.000000pt" height="700.000000pt" viewBox="0 0 700.000000 700.000000"
 preserveAspectRatio="xMidYMid meet">
<metadata>
Created by potrace 1.14, written by Peter Selinger 2001-2017
</metadata>
<g transform="translate(0.000000,700.000000) scale(0.100000,-0.100000)"
fill="#000000" stroke="none">
<path d="M1605 6562 c-100 -9 -201 -53 -270 -119 -39 -37 -58 -59 -215 -243
-39 -47 -84 -98 -98 -115 -15 -16 -69 -79 -121 -140 -160 -189 -186 -218 -201
-235 -8 -8 -35 -40 -60 -70 -25 -30 -52 -62 -60 -70 -17 -19 -13 -14 -209
-245 -80 -94 -152 -177 -161 -187 -72 -71 -142 -184 -177 -286 -26 -72 -27
-88 -27 -257 0 -99 3 -202 8 -228 73 -432 416 -776 849 -852 83 -14 251 -17
317 -5 25 4 61 11 80 14 100 16 278 95 385 172 62 43 195 171 195 186 0 4 9 8
20 8 11 0 20 -4 20 -8 0 -14 113 -126 171 -170 117 -88 242 -147 392 -184 73
-18 120 -23 227 -23 147 0 181 4 286 33 108 31 185 65 274 121 90 56 194 147
249 217 l21 26 27 -33 c137 -166 345 -292 568 -344 80 -19 298 -28 365 -15 25
4 61 11 80 14 54 8 174 51 252 90 117 59 229 147 316 249 l32 38 33 -38 c150
-173 333 -282 567 -340 38 -9 120 -17 195 -19 295 -6 555 97 759 302 80 80
170 206 206 289 28 63 69 182 75 215 3 14 8 46 13 71 12 65 13 324 1 389 -14
72 -54 172 -94 235 -18 28 -93 120 -166 206 -74 85 -154 179 -179 208 -25 30
-50 59 -55 65 -6 6 -118 137 -250 291 -132 154 -252 294 -266 310 -15 17 -59
68 -99 115 -40 47 -86 101 -104 121 -17 19 -49 56 -70 82 -50 60 -132 115
-210 140 -60 19 -105 19 -1961 21 -1045 0 -1913 0 -1930 -2z m3796 -476 c36
-42 60 -69 87 -101 41 -48 438 -511 447 -521 5 -6 21 -24 34 -40 27 -32 121
-141 162 -189 15 -16 86 -100 159 -185 72 -85 153 -179 178 -209 66 -76 80
-99 88 -145 8 -48 8 -196 -1 -247 -51 -299 -299 -511 -596 -510 -303 1 -570
244 -595 542 -8 99 -10 111 -26 149 -30 70 -93 115 -173 124 -70 8 -135 -15
-180 -65 -45 -51 -56 -78 -62 -159 -6 -80 -28 -180 -50 -229 -104 -225 -312
-361 -553 -361 -301 0 -555 220 -591 513 -20 157 -28 186 -67 230 -128 140
-355 67 -377 -121 -2 -20 -7 -59 -10 -87 -23 -215 -154 -395 -356 -488 -57
-26 -167 -48 -240 -48 -258 1 -481 160 -567 406 -20 57 -24 78 -37 207 -7 70
-25 107 -71 148 -61 54 -130 69 -208 45 -90 -26 -145 -96 -153 -194 -11 -152
-44 -255 -114 -358 -79 -117 -217 -208 -368 -243 -72 -17 -229 -8 -306 18
-208 68 -365 244 -406 455 -16 84 -13 266 5 309 12 28 405 499 582 698 12 14
70 81 129 150 59 69 117 136 128 150 12 14 89 104 171 200 82 96 155 180 161
185 8 7 645 10 1877 10 l1864 0 35 -39z"/>
<path d="M559 3257 c-22 -10 -51 -33 -65 -51 -60 -71 -57 20 -57 -1433 0 -733
-3 -1333 -6 -1334 -3 0 -64 -2 -136 -3 -142 -2 -179 -12 -229 -62 -63 -63 -82
-175 -42 -252 26 -51 83 -99 132 -111 30 -8 997 -11 3356 -11 3252 0 3314 1
3356 20 141 64 174 239 66 354 -46 48 -86 59 -224 62 -69 1 -130 3 -136 3 -7
1 -11 386 -11 1335 l0 1333 -22 47 c-82 168 -306 168 -394 1 l-21 -40 0 -1335
c0 -734 -3 -1337 -7 -1340 -6 -4 -2530 -5 -2601 -1 -17 1 -18 69 -20 1143 l-3
1143 -23 55 c-59 145 -191 252 -340 276 -21 4 -354 6 -742 6 -676 0 -708 -1
-767 -20 -137 -44 -231 -132 -284 -267 l-23 -60 -2 -1134 c-1 -748 -5 -1136
-12 -1140 -8 -5 -363 -6 -417 -2 -7 1 -10 450 -10 1328 0 1084 -2 1334 -13
1367 -40 120 -188 180 -303 123z m2502 -647 c4 -69 0 -2160 -4 -2167 -4 -6
-1248 -10 -1299 -4 -8 1 -11 2174 -4 2182 3 2 297 4 655 4 572 0 651 -2 652
-15z"/>
<path d="M4322 3058 c-132 -14 -268 -108 -330 -226 -55 -105 -55 -106 -55
-876 1 -701 1 -712 22 -774 53 -156 168 -261 321 -294 88 -19 1011 -18 1080 1
147 41 254 145 311 301 16 45 23 1434 7 1519 -28 156 -153 292 -309 336 -56
15 -116 17 -524 19 -253 0 -488 -2 -523 -6z m921 -437 c4 0 6 -295 5 -653 l-3
-653 -432 -1 c-320 -2 -433 1 -434 10 -6 50 -4 1283 2 1291 5 7 155 10 431 9
233 -1 426 -2 431 -3z"/>
</g>
</svg>
